<svg width="24" height="22" viewBox="0 0 24 22" fill="none" xmlns="http://www.w3.org/2000/svg">
<path d="M16.8279 1H6.27597C3.36213 1 1 3.23858 1 6V16C1 18.7614 3.36213 21 6.27597 21H16.8279C19.7418 21 22.1039 18.7614 22.1039 16V6C22.1039 3.23858 19.7418 1 16.8279 1Z" stroke="#1C2027" stroke-width="2" stroke-linecap="round" stroke-linejoin="round"/>
<path d="M15.7727 10.3698C15.903 11.2021 15.753 12.052 15.3441 12.7988C14.9352 13.5456 14.2882 14.1512 13.4952 14.5295C12.7022 14.9077 11.8036 15.0394 10.9271 14.9057C10.0506 14.7721 9.24083 14.3799 8.61307 13.785C7.98531 13.1901 7.57148 12.4227 7.43044 11.592C7.2894 10.7614 7.42833 9.90971 7.82747 9.15819C8.22661 8.40667 8.86563 7.79355 9.65365 7.40605C10.4417 7.01856 11.3386 6.8764 12.2167 6.99981C13.1125 7.1257 13.9418 7.52128 14.5822 8.12812C15.2225 8.73496 15.6399 9.52089 15.7727 10.3698Z" stroke="#1C2027" stroke-width="2" stroke-linecap="round" stroke-linejoin="round"/>
<path d="M17.3555 5.5H17.3657" stroke="#1C2027" stroke-width="2" stroke-linecap="round" stroke-linejoin="round"/>
</svg>
