<svg width="24" height="21" viewBox="0 0 24 21" fill="none" xmlns="http://www.w3.org/2000/svg">
<path d="M15.7727 7C17.4518 7 19.0622 7.63214 20.2495 8.75736C21.4368 9.88258 22.1039 11.4087 22.1039 13V20H17.8831V13C17.8831 12.4696 17.6607 11.9609 17.265 11.5858C16.8692 11.2107 16.3324 11 15.7727 11C15.213 11 14.6762 11.2107 14.2804 11.5858C13.8847 11.9609 13.6623 12.4696 13.6623 13V20H9.44153V13C9.44153 11.4087 10.1086 9.88258 11.2959 8.75736C12.4832 7.63214 14.0936 7 15.7727 7V7Z" stroke="#1C2027" stroke-width="2" stroke-linecap="round" stroke-linejoin="round"/>
<path d="M5.22078 8H1V20H5.22078V8Z" stroke="#1C2027" stroke-width="2" stroke-linecap="round" stroke-linejoin="round"/>
<path d="M3.11039 5C4.27593 5 5.22078 4.10457 5.22078 3C5.22078 1.89543 4.27593 1 3.11039 1C1.94485 1 1 1.89543 1 3C1 4.10457 1.94485 5 3.11039 5Z" stroke="#1C2027" stroke-width="2" stroke-linecap="round" stroke-linejoin="round"/>
</svg>
