<svg width="26" height="21" viewBox="0 0 26 21" fill="none" xmlns="http://www.w3.org/2000/svg">
<path d="M24.5747 1.9998C23.5642 2.67528 22.4454 3.19191 21.2614 3.5298C20.6259 2.83731 19.7813 2.34649 18.8419 2.12373C17.9024 1.90096 16.9135 1.957 16.0087 2.28426C15.104 2.61151 14.3271 3.1942 13.7832 3.95352C13.2393 4.71283 12.9546 5.61214 12.9676 6.5298V7.5298C11.1132 7.57537 9.27572 7.18561 7.61878 6.39525C5.96185 5.60488 4.53688 4.43844 3.4708 2.9998C3.4708 2.9998 -0.749977 11.9998 8.74678 15.9998C6.57363 17.3978 3.98485 18.0987 1.36041 17.9998C10.8572 22.9998 22.4643 17.9998 22.4643 6.4998C22.4633 6.22126 22.4351 5.9434 22.3799 5.6698C23.4568 4.6633 24.2168 3.39251 24.5747 1.9998V1.9998Z" stroke="#1C2027" stroke-width="2" stroke-linecap="round" stroke-linejoin="round"/>
</svg>
